# xmcd CD database file
#
# Track frame offsets:
#	150
#	25639
#	49660
#	75408
#	100923
#	125670
#	154564
#	177231
#	196598
#	221089
#
# Disc length: 3310 seconds
#
# Revision: 0
# Processed by: cddbd v1.5.1PL0 Copyright (c) Steve Scherf et al.
# Submitted via: CDex 1.51
#
DISCID=750cec0a
DTITLE=Pedrito Calvo y la jiusticia - Raìces
DYEAR=2005
DGENRE=Salsa
TTITLE0=Dormir con tigo
TTITLE1=El rey
TTITLE2=Ella tiene un algo que son
TTITLE3=Asì mismito
TTITLE4=En el balcòn aquel
TTITLE5=Tango uno
TTITLE6=Persecuciòn
TTITLE7=Riò manzanares
TTITLE8=Raìces
TTITLE9=Suerte y prosperidad
EXTD=YEAR: 2005
EXTT0=
EXTT1=
EXTT2=
EXTT3=
EXTT4=
EXTT5=
EXTT6=
EXTT7=
EXTT8=
EXTT9=
PLAYORDER=
